HIERARCHY
ROOT joint_0
{
	OFFSET 0.000000 0.000000 0.000000
	CHANNELS 6 Xposition Yposition Zposition Zrotation Yrotation Xrotation 
	JOINT joint_1
	{
		OFFSET 11.612000 -0.419000 106.198000
		CHANNELS 3 Zrotation Yrotation Xrotation
		JOINT joint_2
		{
			OFFSET -1.708000 -1.022000 97.564090
			CHANNELS 3 Zrotation Yrotation Xrotation
			JOINT joint_3
			{
				OFFSET -4.121000 -1.538000 97.375000
				CHANNELS 3 Zrotation Yrotation Xrotation
				JOINT joint_4
				{
					OFFSET 5.442000 -2.123000 132.795900
					CHANNELS 3 Zrotation Yrotation Xrotation
					JOINT joint_5
					{
						OFFSET 21.935000 0.195000 82.975100
						CHANNELS 3 Zrotation Yrotation Xrotation
						End Site
						{
							OFFSET 0.000000 0.000000 0.000000
						}
					}
				}
				JOINT joint_6
				{
					OFFSET 4.262000 -30.048000 73.899900
					CHANNELS 3 Zrotation Yrotation Xrotation
					JOINT joint_7
					{
						OFFSET 9.731000 -136.810010 -21.963010
						CHANNELS 3 Zrotation Yrotation Xrotation
						JOINT joint_8
						{
							OFFSET 33.360000 -35.709000 -267.597900
							CHANNELS 3 Zrotation Yrotation Xrotation
							JOINT joint_9
							{
								OFFSET 36.156000 -29.759000 -240.558040
								CHANNELS 3 Zrotation Yrotation Xrotation
								End Site
								{
									OFFSET 0.000000 0.000000 0.000000
								}
							}
						}
					}
				}
				JOINT joint_10
				{
					OFFSET 2.027000 27.734000 74.914920
					CHANNELS 3 Zrotation Yrotation Xrotation
					JOINT joint_11
					{
						OFFSET -5.183000 136.784000 -23.604980
						CHANNELS 3 Zrotation Yrotation Xrotation
						JOINT joint_12
						{
							OFFSET 29.806000 37.229000 -267.809940
							CHANNELS 3 Zrotation Yrotation Xrotation
							JOINT joint_13
							{
								OFFSET 36.890000 46.524990 -237.772030
								CHANNELS 3 Zrotation Yrotation Xrotation
								End Site
								{
									OFFSET 0.000000 0.000000 0.000000
								}
							}
						}
					}
				}
			}
		}
	}
	JOINT joint_14
	{
		OFFSET -7.290000 -102.873990 -124.314940
		CHANNELS 3 Zrotation Yrotation Xrotation
		JOINT joint_15
		{
			OFFSET -15.466000 -19.909010 -438.533020
			CHANNELS 3 Zrotation Yrotation Xrotation
			JOINT joint_16
			{
				OFFSET -26.899000 -18.922000 -464.797000
				CHANNELS 3 Zrotation Yrotation Xrotation
				JOINT joint_17
				{
					OFFSET 179.329000 -12.011000 -84.174000
					CHANNELS 3 Zrotation Yrotation Xrotation
					End Site
					{
						OFFSET 0.000000 0.000000 0.000000
					}
				}
			}
		}
	}
	JOINT joint_18
	{
		OFFSET -6.225000 101.546000 -125.479980
		CHANNELS 3 Zrotation Yrotation Xrotation
		JOINT joint_19
		{
			OFFSET -13.973000 7.996000 -438.963010
			CHANNELS 3 Zrotation Yrotation Xrotation
			JOINT joint_20
			{
				OFFSET -44.294000 5.716000 -463.813970
				CHANNELS 3 Zrotation Yrotation Xrotation
				JOINT joint_21
				{
					OFFSET 178.505000 -4.689000 -85.139000
					CHANNELS 3 Zrotation Yrotation Xrotation
					End Site
					{
						OFFSET 0.000000 0.000000 0.000000
					}
				}
			}
		}
	}
}
MOTION
Frames: 11
Frame Time: 0.016667
-3008.741211 950.359863 1099.188965 5.611944 4.770196 1.145417 -1.871752 10.684108 1.472129 -4.083902 -2.058417 -0.384695 -4.461073 1.988803 0.375218 -1.231109 -9.462221 5.458581 0.000000 0.000000 0.000000 -5.042416 -8.531668 -0.593010 -4.544033 -4.344530 -5.706464 -167.284439 -76.864946 -158.586436 0.000000 0.000000 0.000000 -0.627954 -23.330774 3.657573 43.190853 -8.218285 2.407761 -175.420536 -47.393806 83.915191 0.000000 0.000000 0.000000 -1.031794 -18.210602 -10.911032 -2.026593 50.890811 8.515101 2.649255 -6.753814 0.620715 0.000000 0.000000 0.000000 3.768414 -3.623464 2.233711 4.599588 21.406270 2.879498 7.095375 -11.332646 2.699349 0.000000 0.000000 0.000000 
-2997.331787 948.194458 1104.371948 4.407236 5.169469 1.077839 -1.809279 11.141662 2.200891 -3.796267 -2.144354 -0.506659 -4.049711 2.028044 0.466924 -1.186713 -10.379691 5.413326 0.000000 0.000000 0.000000 -5.183054 -8.748436 -1.073746 -3.527179 -4.281543 -4.869618 -166.519811 -77.401809 -159.379956 0.000000 0.000000 0.000000 -0.904125 -18.244936 3.855050 31.672727 -6.988337 3.171201 -171.906509 -73.567898 91.085186 0.000000 0.000000 0.000000 -1.426371 -19.426887 -11.347255 -2.632591 47.580934 7.556828 -0.361007 -6.679273 -0.550196 0.000000 0.000000 0.000000 4.146732 -3.023555 2.290796 4.784812 20.491800 3.019765 6.986421 -8.837430 2.710517 0.000000 0.000000 0.000000 
-2985.240723 945.428467 1109.441040 3.356100 5.631472 1.079365 -1.834372 11.284454 2.746939 -3.487459 -2.147002 -0.582542 -3.618601 2.031374 0.512710 -1.148731 -11.014169 5.363286 0.000000 0.000000 0.000000 -5.210408 -9.123558 -1.289228 -3.073516 -4.406348 -4.625377 -166.062597 -77.605521 -159.147751 0.000000 0.000000 0.000000 -1.187680 -14.074884 3.830009 21.428679 -5.953838 4.058044 179.133904 -79.550197 112.399146 0.000000 0.000000 0.000000 -1.779927 -20.356634 -11.730628 -3.339283 43.436283 6.579036 -2.709994 -6.610143 -1.493934 0.000000 0.000000 0.000000 4.417249 -2.368039 2.405660 4.890836 19.359466 2.976614 6.753226 -6.268859 2.672692 0.000000 0.000000 0.000000 
-2972.577881 942.164307 1114.928955 2.454005 6.122693 1.166487 -1.929757 11.263069 3.158367 -3.162775 -2.145467 -0.612298 -3.176573 2.022037 0.525642 -1.113226 -11.434934 5.289492 0.000000 0.000000 0.000000 -5.247026 -9.643741 -1.456296 -3.061480 -4.644330 -4.704506 -165.818139 -77.691584 -157.886632 0.000000 0.000000 0.000000 -1.343959 -11.458726 3.693333 16.468545 -4.843261 4.202203 175.368118 -78.988664 124.245508 0.000000 0.000000 0.000000 -2.269074 -20.831783 -12.076840 -4.280289 37.916298 5.569163 -4.682640 -5.884153 -2.288231 0.000000 0.000000 0.000000 4.584821 -1.569178 2.507517 4.910544 17.867204 2.829338 6.394631 -3.401283 2.591983 0.000000 0.000000 0.000000 
-2959.827637 937.955933 1119.765991 1.740765 6.516723 1.303666 -2.011198 11.290456 3.448150 -2.861313 -2.167272 -0.612096 -2.778607 1.997500 0.538407 -1.092859 -11.657719 5.239994 0.000000 0.000000 0.000000 -5.296713 -10.348667 -1.600060 -3.279409 -4.976760 -4.767512 -165.693248 -77.790995 -156.024036 0.000000 0.000000 0.000000 -1.415680 -9.719736 3.593908 14.059005 -3.920499 4.160661 173.801580 -77.895706 131.096843 0.000000 0.000000 0.000000 -2.747788 -20.973198 -12.219249 -5.147555 32.152126 4.695260 -5.847230 -5.071602 -2.778547 0.000000 0.000000 0.000000 4.644918 -0.717838 2.622816 4.866315 16.436073 2.674678 6.046865 -0.592708 2.511902 0.000000 0.000000 0.000000 
-2947.279541 932.395630 1123.313965 1.076491 6.831009 1.385392 -2.002884 11.319245 3.700966 -2.548229 -2.150080 -0.637794 -2.386220 1.967198 0.564754 -1.099277 -11.685549 5.249335 0.000000 0.000000 0.000000 -5.347972 -11.289231 -1.692439 -3.631826 -5.418944 -4.628895 -165.649944 -78.013572 -153.735977 0.000000 0.000000 0.000000 -1.362709 -8.676003 3.639481 13.176659 -3.291355 4.398325 173.330771 -76.777116 134.788192 0.000000 0.000000 0.000000 -2.922539 -21.077373 -11.948722 -5.586275 27.072518 3.886076 -6.069970 -5.481699 -2.958354 0.000000 0.000000 0.000000 4.666758 0.058715 2.858501 4.833051 15.312702 2.535298 5.807292 1.875959 2.464305 0.000000 0.000000 0.000000 
-2934.749512 925.653564 1126.001953 0.443991 7.109521 1.424897 -1.931252 11.276655 3.927674 -2.210226 -2.104769 -0.689346 -1.978119 1.949585 0.592719 -1.128195 -11.521686 5.295562 0.000000 0.000000 0.000000 -5.411854 -12.484055 -1.709026 -4.252345 -5.984464 -4.398296 -165.757976 -78.332958 -150.755024 0.000000 0.000000 0.000000 -1.226316 -8.064766 3.786994 13.060187 -2.877789 4.995596 173.376703 -75.658919 136.886860 0.000000 0.000000 0.000000 -2.812738 -21.044228 -11.345108 -5.612281 22.116046 2.989491 -5.675314 -6.845230 -2.922440 0.000000 0.000000 0.000000 4.660263 0.807481 3.208427 4.803909 14.326388 2.374496 5.618787 4.156724 2.430777 0.000000 0.000000 0.000000 
-2922.369141 918.228943 1127.364014 0.095922 7.211482 1.566645 -1.873306 11.379808 4.024790 -1.919631 -2.109841 -0.705538 -1.629930 1.941053 0.615140 -1.172313 -11.209745 5.363959 0.000000 0.000000 0.000000 -5.472392 -13.844735 -1.710414 -5.080383 -6.584546 -4.024611 -166.034537 -78.667955 -147.365883 0.000000 0.000000 0.000000 -1.064491 -7.699830 4.019045 13.155693 -2.624299 5.716212 173.572476 -74.746917 138.491686 0.000000 0.000000 0.000000 -2.459419 -20.771944 -10.775920 -5.233035 17.749416 2.116910 -4.968368 -7.298874 -2.664402 0.000000 0.000000 0.000000 4.594407 1.489978 3.532251 4.740249 13.789017 2.243152 5.471492 6.082964 2.400946 0.000000 0.000000 0.000000 
-2910.195801 910.371399 1126.973999 0.099542 7.113405 1.888624 -1.868818 11.654308 3.937334 -1.681895 -2.157660 -0.670459 -1.342783 1.941156 0.611982 -1.228917 -10.768094 5.449342 0.000000 0.000000 0.000000 -5.531493 -15.333120 -1.709850 -6.131678 -7.173710 -3.513636 -166.518736 -78.941203 -143.651029 0.000000 0.000000 0.000000 -0.902112 -7.496971 4.407617 13.234626 -2.499873 6.374185 173.776221 -74.145594 140.033286 0.000000 0.000000 0.000000 -1.682344 -20.344635 -10.443963 -4.303559 14.525321 1.306580 -3.912138 -5.771711 -2.105342 0.000000 0.000000 0.000000 4.502177 2.043408 3.761842 4.671737 13.860948 2.152346 5.396018 7.515051 2.383508 0.000000 0.000000 0.000000 
-2898.173340 901.894348 1125.020020 0.290666 6.907678 2.294311 -1.877656 11.940810 3.765349 -1.443880 -2.182748 -0.642547 -1.056353 1.957596 0.587513 -1.300924 -10.185452 5.563809 0.000000 0.000000 0.000000 -5.595502 -17.029810 -1.650178 -7.588167 -7.790745 -2.887464 -167.317834 -79.185294 -139.237540 0.000000 0.000000 0.000000 -0.722689 -7.526169 4.948946 13.420706 -2.540748 7.102592 174.069341 -73.827807 141.244586 0.000000 0.000000 0.000000 -0.358456 -19.880552 -10.167742 -2.754314 12.358502 0.343619 -2.382984 -3.348807 -1.273577 0.000000 0.000000 0.000000 4.431740 2.444659 3.998226 4.643132 14.425117 2.068428 5.414303 8.504678 2.389480 0.000000 0.000000 0.000000 
-2886.479492 893.131714 1121.941040 0.717834 6.528456 2.638173 -1.901019 12.292915 3.718419 -1.229572 -2.205396 -0.649898 -0.791087 1.988950 0.592572 -1.382288 -9.505641 5.697513 0.000000 0.000000 0.000000 -5.593929 -18.897863 -1.592509 -9.458478 -8.384037 -2.040889 -168.508130 -79.531925 -134.144012 0.000000 0.000000 0.000000 -0.560665 -7.731783 5.331100 13.431607 -2.784259 7.842710 174.247594 -73.971863 142.677480 0.000000 0.000000 0.000000 0.752927 -19.585794 -9.855567 -1.494417 11.787771 -0.588627 -1.189400 -1.715303 -0.638948 0.000000 0.000000 0.000000 4.311765 2.553470 4.372625 4.575004 15.813028 2.012151 5.480694 8.995131 2.396609 0.000000 0.000000 0.000000 
